<svg width="20" height="20" viewBox="0 0 20 20" fill="none" xmlns="http://www.w3.org/2000/svg">
<path d="M9.25 17.1768C9.25 17.591 9.58579 17.9268 10 17.9268C10.4142 17.9268 10.75 17.591 10.75 17.1768L9.25 17.1768ZM10.5303 3.0976C10.2374 2.80471 9.76256 2.80471 9.46967 3.0976L4.6967 7.87057C4.40381 8.16346 4.40381 8.63834 4.6967 8.93123C4.98959 9.22412 5.46447 9.22412 5.75736 8.93123L10 4.68859L14.2426 8.93123C14.5355 9.22412 15.0104 9.22412 15.3033 8.93123C15.5962 8.63834 15.5962 8.16346 15.3033 7.87057L10.5303 3.0976ZM10 17.1768L10.75 17.1768L10.75 3.62793L10 3.62793L9.25 3.62793L9.25 17.1768L10 17.1768Z" fill="#8B8B8B"/>
</svg>
